<svg xmlns="http://www.w3.org/2000/svg" viewBox="0 0 1280 720" fill="none">
  <defs>
    <linearGradient id="bg" x1="0%" y1="0%" x2="100%" y2="100%">
      <stop offset="0%" style="stop-color:#052e16"/>
      <stop offset="50%" style="stop-color:#064e3b"/>
      <stop offset="100%" style="stop-color:#065f46"/>
    </linearGradient>
    <linearGradient id="acc" x1="0%" y1="0%" x2="100%" y2="100%">
      <stop offset="0%" style="stop-color:#34d399"/>
      <stop offset="100%" style="stop-color:#10b981"/>
    </linearGradient>
  </defs>
  <rect width="1280" height="720" fill="url(#bg)"/>
  <g opacity="0.07" stroke="#10b981" stroke-width="1">
    <line x1="0" y1="60" x2="1280" y2="60"/><line x1="0" y1="120" x2="1280" y2="120"/>
    <line x1="0" y1="180" x2="1280" y2="180"/><line x1="0" y1="240" x2="1280" y2="240"/>
    <line x1="0" y1="300" x2="1280" y2="300"/><line x1="0" y1="360" x2="1280" y2="360"/>
    <line x1="0" y1="420" x2="1280" y2="420"/><line x1="0" y1="480" x2="1280" y2="480"/>
    <line x1="0" y1="540" x2="1280" y2="540"/><line x1="0" y1="600" x2="1280" y2="600"/>
    <line x1="160" y1="0" x2="160" y2="720"/><line x1="320" y1="0" x2="320" y2="720"/>
    <line x1="480" y1="0" x2="480" y2="720"/><line x1="640" y1="0" x2="640" y2="720"/>
    <line x1="800" y1="0" x2="800" y2="720"/><line x1="960" y1="0" x2="960" y2="720"/>
    <line x1="1120" y1="0" x2="1120" y2="720"/>
  </g>
  <!-- Pipeline nodes -->
  <circle cx="640" cy="360" r="60" fill="#10b981" opacity="0.15" stroke="#34d399" stroke-width="2"/>
  <circle cx="400" cy="260" r="40" fill="#10b981" opacity="0.12" stroke="#34d399" stroke-width="1.5"/>
  <circle cx="880" cy="260" r="40" fill="#10b981" opacity="0.12" stroke="#34d399" stroke-width="1.5"/>
  <circle cx="300" cy="460" r="30" fill="#10b981" opacity="0.1" stroke="#34d399" stroke-width="1.5"/>
  <circle cx="980" cy="460" r="30" fill="#10b981" opacity="0.1" stroke="#34d399" stroke-width="1.5"/>
  <!-- Connection lines -->
  <line x1="430" y1="275" x2="592" y2="330" stroke="#34d399" stroke-width="1.5" opacity="0.4"/>
  <line x1="850" y1="275" x2="688" y2="330" stroke="#34d399" stroke-width="1.5" opacity="0.4"/>
  <line x1="318" y1="444" x2="370" y2="275" stroke="#34d399" stroke-width="1.5" opacity="0.3"/>
  <line x1="962" y1="444" x2="910" y2="275" stroke="#34d399" stroke-width="1.5" opacity="0.3"/>
  <!-- Labels -->
  <text x="370" y="255" font-family="system-ui, sans-serif" font-size="14" fill="#34d399" font-weight="600" text-anchor="middle">Perplexity</text>
  <text x="610" y="366" font-family="system-ui, sans-serif" font-size="18" fill="#34d399" font-weight="700" text-anchor="middle">Claude</text>
  <text x="850" y="255" font-family="system-ui, sans-serif" font-size="14" fill="#34d399" font-weight="600" text-anchor="middle">Kimi</text>
  <text x="270" y="458" font-family="system-ui, sans-serif" font-size="12" fill="#6ee7b7" text-anchor="middle">Discovery</text>
  <text x="1010" y="458" font-family="system-ui, sans-serif" font-size="12" fill="#6ee7b7" text-anchor="middle">Gemini</text>
  <!-- Left text -->
  <rect x="80" y="180" width="6" height="100" rx="3" fill="url(#acc)"/>
  <text x="104" y="230" font-family="system-ui, sans-serif" font-size="32" font-weight="800" fill="white">AI Pipeline</text>
  <text x="104" y="268" font-family="system-ui, sans-serif" font-size="32" font-weight="800" fill="url(#acc)">Editoriale</text>
  <text x="104" y="320" font-family="system-ui, sans-serif" font-size="16" fill="#a1a1aa">Next.js · Supabase · 2026</text>
</svg>
